<svg width="1642" height="318" viewBox="0 0 1642 318" fill="none" xmlns="http://www.w3.org/2000/svg">
<g filter="url(#filter0_ddif_2105_2)">
<path d="M318.122 215C316.878 215 315.859 214.604 315.067 213.812C314.275 213.02 313.879 212.002 313.879 210.757V100.448C313.879 99.2035 314.275 98.1852 315.067 97.3933C315.859 96.6013 316.878 96.2053 318.122 96.2053H336.111C338.034 96.2053 339.392 96.6579 340.184 97.563C341.089 98.3549 341.655 98.9772 341.881 99.4297L383.29 164.767V100.448C383.29 99.2035 383.685 98.1852 384.477 97.3933C385.269 96.6013 386.288 96.2053 387.532 96.2053H407.897C409.141 96.2053 410.16 96.6013 410.952 97.3933C411.744 98.1852 412.14 99.2035 412.14 100.448V210.757C412.14 211.889 411.744 212.907 410.952 213.812C410.16 214.604 409.141 215 407.897 215H389.738C387.928 215 386.571 214.547 385.665 213.642C384.873 212.737 384.364 212.115 384.138 211.776L342.73 148.984V210.757C342.73 212.002 342.334 213.02 341.542 213.812C340.75 214.604 339.731 215 338.487 215H318.122ZM440.099 215C438.854 215 437.836 214.604 437.044 213.812C436.252 213.02 435.856 212.002 435.856 210.757V100.448C435.856 99.2035 436.252 98.1852 437.044 97.3933C437.836 96.6013 438.854 96.2053 440.099 96.2053H462.84C464.084 96.2053 465.102 96.6013 465.894 97.3933C466.686 98.1852 467.082 99.2035 467.082 100.448V210.757C467.082 212.002 466.686 213.02 465.894 213.812C465.102 214.604 464.084 215 462.84 215H440.099ZM539.923 216.697C529.175 216.697 519.898 214.943 512.092 211.436C504.398 207.816 498.402 202.611 494.103 195.823C489.917 188.922 487.597 180.55 487.145 170.707C487.032 165.842 486.975 160.694 486.975 155.263C486.975 149.719 487.032 144.459 487.145 139.481C487.597 129.864 489.973 121.718 494.272 115.043C498.572 108.368 504.624 103.276 512.431 99.7692C520.237 96.2619 529.402 94.5083 539.923 94.5083C548.409 94.5083 555.932 95.5831 562.494 97.7327C569.056 99.7692 574.544 102.541 578.956 106.048C583.482 109.556 586.876 113.402 589.138 117.588C591.514 121.774 592.759 125.904 592.872 129.977C592.985 130.995 592.646 131.844 591.854 132.523C591.175 133.201 590.326 133.541 589.308 133.541H564.531C563.286 133.541 562.325 133.371 561.646 133.032C561.08 132.579 560.571 131.957 560.119 131.165C559.327 129.468 558.139 127.714 556.555 125.904C555.084 123.981 552.991 122.34 550.276 120.982C547.673 119.625 544.223 118.946 539.923 118.946C533.475 118.946 528.383 120.643 524.65 124.037C521.029 127.431 519.05 132.862 518.71 140.329C518.371 150.059 518.371 159.902 518.71 169.858C519.05 177.778 521.143 183.491 524.989 186.998C528.836 190.506 533.927 192.259 540.263 192.259C544.562 192.259 548.352 191.524 551.633 190.053C555.027 188.582 557.686 186.32 559.609 183.265C561.533 180.097 562.494 176.081 562.494 171.216V167.991H546.542C545.298 167.991 544.223 167.595 543.318 166.803C542.526 165.898 542.13 164.823 542.13 163.579V151.021C542.13 149.776 542.526 148.758 543.318 147.966C544.223 147.061 545.298 146.608 546.542 146.608H589.308C590.553 146.608 591.571 147.061 592.363 147.966C593.155 148.758 593.551 149.776 593.551 151.021V170.367C593.551 180.097 591.345 188.413 586.932 195.314C582.52 202.215 576.241 207.533 568.095 211.266C560.062 214.887 550.672 216.697 539.923 216.697ZM617.263 215C616.019 215 615.001 214.604 614.209 213.812C613.417 213.02 613.021 212.002 613.021 210.757V100.448C613.021 99.2035 613.417 98.1852 614.209 97.3933C615.001 96.6013 616.019 96.2053 617.263 96.2053H639.155C640.4 96.2053 641.418 96.6013 642.21 97.3933C643.002 98.1852 643.398 99.2035 643.398 100.448V141.347H685.316V100.448C685.316 99.2035 685.712 98.1852 686.504 97.3933C687.296 96.6013 688.314 96.2053 689.558 96.2053H711.451C712.695 96.2053 713.713 96.6013 714.505 97.3933C715.297 98.1852 715.693 99.2035 715.693 100.448V210.757C715.693 212.002 715.297 213.02 714.505 213.812C713.713 214.604 712.695 215 711.451 215H689.558C688.314 215 687.296 214.604 686.504 213.812C685.712 213.02 685.316 212.002 685.316 210.757V168.5H643.398V210.757C643.398 212.002 643.002 213.02 642.21 213.812C641.418 214.604 640.4 215 639.155 215H617.263ZM769.849 215C768.605 215 767.587 214.604 766.795 213.812C766.003 213.02 765.607 212.002 765.607 210.757V122.849H735.399C734.155 122.849 733.136 122.453 732.344 121.661C731.552 120.756 731.156 119.738 731.156 118.607V100.448C731.156 99.2035 731.552 98.1852 732.344 97.3933C733.136 96.6013 734.155 96.2053 735.399 96.2053H826.701C827.946 96.2053 828.964 96.6013 829.756 97.3933C830.548 98.1852 830.944 99.2035 830.944 100.448V118.607C830.944 119.738 830.548 120.756 829.756 121.661C828.964 122.453 827.946 122.849 826.701 122.849H796.493V210.757C796.493 212.002 796.097 213.02 795.305 213.812C794.514 214.604 793.495 215 792.251 215H769.849ZM882.761 215C881.63 215 880.612 214.604 879.707 213.812C878.915 213.02 878.519 212.002 878.519 210.757V100.448C878.519 99.2035 878.915 98.1852 879.707 97.3933C880.612 96.6013 881.63 96.2053 882.761 96.2053H901.09C902.9 96.2053 904.258 96.7144 905.163 97.7327C906.181 98.6378 906.803 99.3732 907.029 99.9389L936.898 153.566L966.766 99.9389C967.106 99.3732 967.671 98.6378 968.463 97.7327C969.368 96.7144 970.783 96.2053 972.706 96.2053H990.865C992.109 96.2053 993.127 96.6013 993.919 97.3933C994.824 98.1852 995.277 99.2035 995.277 100.448V210.757C995.277 212.002 994.824 213.02 993.919 213.812C993.127 214.604 992.109 215 990.865 215H970.669C969.425 215 968.35 214.604 967.445 213.812C966.653 213.02 966.257 212.002 966.257 210.757V147.117L947.08 182.586C946.628 183.604 945.949 184.509 945.044 185.301C944.139 186.093 942.894 186.489 941.31 186.489H932.485C930.902 186.489 929.657 186.093 928.752 185.301C927.847 184.509 927.111 183.604 926.546 182.586L907.369 147.117V210.757C907.369 212.002 906.973 213.02 906.181 213.812C905.389 214.604 904.371 215 903.126 215H882.761ZM1012.1 215C1011.2 215 1010.35 214.661 1009.56 213.982C1008.88 213.19 1008.54 212.341 1008.54 211.436C1008.54 210.87 1008.6 210.361 1008.71 209.909L1048.59 100.957C1048.93 99.7126 1049.61 98.6378 1050.63 97.7327C1051.76 96.7144 1053.29 96.2053 1055.21 96.2053H1080.33C1082.25 96.2053 1083.72 96.7144 1084.74 97.7327C1085.87 98.6378 1086.6 99.7126 1086.94 100.957L1126.66 209.909C1126.88 210.361 1126.99 210.87 1126.99 211.436C1126.99 212.341 1126.6 213.19 1125.81 213.982C1125.13 214.661 1124.28 215 1123.26 215H1102.39C1100.69 215 1099.39 214.604 1098.48 213.812C1097.69 212.907 1097.18 212.115 1096.96 211.436L1090.34 194.126H1045.03L1038.58 211.436C1038.35 212.115 1037.84 212.907 1037.05 213.812C1036.26 214.604 1034.9 215 1032.98 215H1012.1ZM1051.98 169.688H1083.55L1067.6 124.886L1051.98 169.688ZM1144.61 215C1143.37 215 1142.35 214.604 1141.56 213.812C1140.77 213.02 1140.37 212.002 1140.37 210.757V100.448C1140.37 99.2035 1140.77 98.1852 1141.56 97.3933C1142.35 96.6013 1143.37 96.2053 1144.61 96.2053H1190.77C1205.37 96.2053 1216.85 99.5994 1225.22 106.388C1233.71 113.063 1237.95 122.566 1237.95 134.898C1237.95 142.931 1235.97 149.719 1232.01 155.263C1228.17 160.807 1223.07 164.993 1216.74 167.822L1240.16 209.569C1240.5 210.248 1240.67 210.87 1240.67 211.436C1240.67 212.341 1240.27 213.19 1239.48 213.982C1238.8 214.661 1237.95 215 1236.93 215H1214.53C1212.38 215 1210.8 214.491 1209.78 213.473C1208.76 212.341 1208.03 211.323 1207.57 210.418L1188.23 173.082H1170.75V210.757C1170.75 212.002 1170.35 213.02 1169.56 213.812C1168.77 214.604 1167.75 215 1166.51 215H1144.61ZM1170.75 149.154H1190.43C1195.75 149.154 1199.71 147.853 1202.31 145.251C1205.03 142.648 1206.39 139.085 1206.39 134.559C1206.39 130.147 1205.09 126.583 1202.48 123.868C1199.99 121.152 1195.98 119.795 1190.43 119.795H1170.75V149.154ZM1261.95 215C1260.71 215 1259.69 214.604 1258.9 213.812C1258.1 213.02 1257.71 212.002 1257.71 210.757V100.448C1257.71 99.2035 1258.1 98.1852 1258.9 97.3933C1259.69 96.6013 1260.71 96.2053 1261.95 96.2053H1283.33C1284.58 96.2053 1285.6 96.6013 1286.39 97.3933C1287.18 98.1852 1287.58 99.2035 1287.58 100.448V138.123L1318.97 99.4297C1319.42 98.7509 1320.16 98.0721 1321.18 97.3933C1322.31 96.6013 1323.78 96.2053 1325.59 96.2053H1350.03C1351.05 96.2053 1351.89 96.6013 1352.57 97.3933C1353.25 98.0721 1353.59 98.8641 1353.59 99.7692C1353.59 100.561 1353.37 101.24 1352.91 101.806L1312.35 153.057L1356.14 209.4C1356.59 209.852 1356.82 210.531 1356.82 211.436C1356.82 212.341 1356.42 213.19 1355.63 213.982C1354.95 214.661 1354.16 215 1353.25 215H1327.97C1325.93 215 1324.35 214.547 1323.21 213.642C1322.2 212.737 1321.52 212.058 1321.18 211.606L1287.58 169.688V210.757C1287.58 212.002 1287.18 213.02 1286.39 213.812C1285.6 214.604 1284.58 215 1283.33 215H1261.95ZM1374.31 215C1373.07 215 1372.05 214.604 1371.26 213.812C1370.47 213.02 1370.07 212.002 1370.07 210.757V100.448C1370.07 99.2035 1370.47 98.1852 1371.26 97.3933C1372.05 96.6013 1373.07 96.2053 1374.31 96.2053H1453.57C1454.81 96.2053 1455.83 96.6013 1456.62 97.3933C1457.41 98.1852 1457.81 99.2035 1457.81 100.448V116.4C1457.81 117.645 1457.41 118.663 1456.62 119.455C1455.83 120.247 1454.81 120.643 1453.57 120.643H1399.43V143.553H1449.83C1451.08 143.553 1452.1 144.006 1452.89 144.911C1453.68 145.703 1454.08 146.721 1454.08 147.966V162.73C1454.08 163.862 1453.68 164.88 1452.89 165.785C1452.1 166.577 1451.08 166.973 1449.83 166.973H1399.43V190.562H1454.92C1456.17 190.562 1457.19 190.958 1457.98 191.75C1458.77 192.542 1459.17 193.56 1459.17 194.805V210.757C1459.17 212.002 1458.77 213.02 1457.98 213.812C1457.19 214.604 1456.17 215 1454.92 215H1374.31ZM1508.84 215C1507.59 215 1506.57 214.604 1505.78 213.812C1504.99 213.02 1504.59 212.002 1504.59 210.757V122.849H1474.39C1473.14 122.849 1472.12 122.453 1471.33 121.661C1470.54 120.756 1470.14 119.738 1470.14 118.607V100.448C1470.14 99.2035 1470.54 98.1852 1471.33 97.3933C1472.12 96.6013 1473.14 96.2053 1474.39 96.2053H1565.69C1566.93 96.2053 1567.95 96.6013 1568.74 97.3933C1569.53 98.1852 1569.93 99.2035 1569.93 100.448V118.607C1569.93 119.738 1569.53 120.756 1568.74 121.661C1567.95 122.453 1566.93 122.849 1565.69 122.849H1535.48V210.757C1535.48 212.002 1535.08 213.02 1534.29 213.812C1533.5 214.604 1532.48 215 1531.24 215H1508.84Z" fill="url(#paint0_linear_2105_2)"/>
<path d="M318.122 215C316.878 215 315.859 214.604 315.067 213.812C314.275 213.02 313.879 212.002 313.879 210.757V100.448C313.879 99.2035 314.275 98.1852 315.067 97.3933C315.859 96.6013 316.878 96.2053 318.122 96.2053H336.111C338.034 96.2053 339.392 96.6579 340.184 97.563C341.089 98.3549 341.655 98.9772 341.881 99.4297L383.29 164.767V100.448C383.29 99.2035 383.685 98.1852 384.477 97.3933C385.269 96.6013 386.288 96.2053 387.532 96.2053H407.897C409.141 96.2053 410.16 96.6013 410.952 97.3933C411.744 98.1852 412.14 99.2035 412.14 100.448V210.757C412.14 211.889 411.744 212.907 410.952 213.812C410.16 214.604 409.141 215 407.897 215H389.738C387.928 215 386.571 214.547 385.665 213.642C384.873 212.737 384.364 212.115 384.138 211.776L342.73 148.984V210.757C342.73 212.002 342.334 213.02 341.542 213.812C340.75 214.604 339.731 215 338.487 215H318.122ZM440.099 215C438.854 215 437.836 214.604 437.044 213.812C436.252 213.02 435.856 212.002 435.856 210.757V100.448C435.856 99.2035 436.252 98.1852 437.044 97.3933C437.836 96.6013 438.854 96.2053 440.099 96.2053H462.84C464.084 96.2053 465.102 96.6013 465.894 97.3933C466.686 98.1852 467.082 99.2035 467.082 100.448V210.757C467.082 212.002 466.686 213.02 465.894 213.812C465.102 214.604 464.084 215 462.84 215H440.099ZM539.923 216.697C529.175 216.697 519.898 214.943 512.092 211.436C504.398 207.816 498.402 202.611 494.103 195.823C489.917 188.922 487.597 180.55 487.145 170.707C487.032 165.842 486.975 160.694 486.975 155.263C486.975 149.719 487.032 144.459 487.145 139.481C487.597 129.864 489.973 121.718 494.272 115.043C498.572 108.368 504.624 103.276 512.431 99.7692C520.237 96.2619 529.402 94.5083 539.923 94.5083C548.409 94.5083 555.932 95.5831 562.494 97.7327C569.056 99.7692 574.544 102.541 578.956 106.048C583.482 109.556 586.876 113.402 589.138 117.588C591.514 121.774 592.759 125.904 592.872 129.977C592.985 130.995 592.646 131.844 591.854 132.523C591.175 133.201 590.326 133.541 589.308 133.541H564.531C563.286 133.541 562.325 133.371 561.646 133.032C561.08 132.579 560.571 131.957 560.119 131.165C559.327 129.468 558.139 127.714 556.555 125.904C555.084 123.981 552.991 122.34 550.276 120.982C547.673 119.625 544.223 118.946 539.923 118.946C533.475 118.946 528.383 120.643 524.65 124.037C521.029 127.431 519.05 132.862 518.71 140.329C518.371 150.059 518.371 159.902 518.71 169.858C519.05 177.778 521.143 183.491 524.989 186.998C528.836 190.506 533.927 192.259 540.263 192.259C544.562 192.259 548.352 191.524 551.633 190.053C555.027 188.582 557.686 186.32 559.609 183.265C561.533 180.097 562.494 176.081 562.494 171.216V167.991H546.542C545.298 167.991 544.223 167.595 543.318 166.803C542.526 165.898 542.13 164.823 542.13 163.579V151.021C542.13 149.776 542.526 148.758 543.318 147.966C544.223 147.061 545.298 146.608 546.542 146.608H589.308C590.553 146.608 591.571 147.061 592.363 147.966C593.155 148.758 593.551 149.776 593.551 151.021V170.367C593.551 180.097 591.345 188.413 586.932 195.314C582.52 202.215 576.241 207.533 568.095 211.266C560.062 214.887 550.672 216.697 539.923 216.697ZM617.263 215C616.019 215 615.001 214.604 614.209 213.812C613.417 213.02 613.021 212.002 613.021 210.757V100.448C613.021 99.2035 613.417 98.1852 614.209 97.3933C615.001 96.6013 616.019 96.2053 617.263 96.2053H639.155C640.4 96.2053 641.418 96.6013 642.21 97.3933C643.002 98.1852 643.398 99.2035 643.398 100.448V141.347H685.316V100.448C685.316 99.2035 685.712 98.1852 686.504 97.3933C687.296 96.6013 688.314 96.2053 689.558 96.2053H711.451C712.695 96.2053 713.713 96.6013 714.505 97.3933C715.297 98.1852 715.693 99.2035 715.693 100.448V210.757C715.693 212.002 715.297 213.02 714.505 213.812C713.713 214.604 712.695 215 711.451 215H689.558C688.314 215 687.296 214.604 686.504 213.812C685.712 213.02 685.316 212.002 685.316 210.757V168.5H643.398V210.757C643.398 212.002 643.002 213.02 642.21 213.812C641.418 214.604 640.4 215 639.155 215H617.263ZM769.849 215C768.605 215 767.587 214.604 766.795 213.812C766.003 213.02 765.607 212.002 765.607 210.757V122.849H735.399C734.155 122.849 733.136 122.453 732.344 121.661C731.552 120.756 731.156 119.738 731.156 118.607V100.448C731.156 99.2035 731.552 98.1852 732.344 97.3933C733.136 96.6013 734.155 96.2053 735.399 96.2053H826.701C827.946 96.2053 828.964 96.6013 829.756 97.3933C830.548 98.1852 830.944 99.2035 830.944 100.448V118.607C830.944 119.738 830.548 120.756 829.756 121.661C828.964 122.453 827.946 122.849 826.701 122.849H796.493V210.757C796.493 212.002 796.097 213.02 795.305 213.812C794.514 214.604 793.495 215 792.251 215H769.849ZM882.761 215C881.63 215 880.612 214.604 879.707 213.812C878.915 213.02 878.519 212.002 878.519 210.757V100.448C878.519 99.2035 878.915 98.1852 879.707 97.3933C880.612 96.6013 881.63 96.2053 882.761 96.2053H901.09C902.9 96.2053 904.258 96.7144 905.163 97.7327C906.181 98.6378 906.803 99.3732 907.029 99.9389L936.898 153.566L966.766 99.9389C967.106 99.3732 967.671 98.6378 968.463 97.7327C969.368 96.7144 970.783 96.2053 972.706 96.2053H990.865C992.109 96.2053 993.127 96.6013 993.919 97.3933C994.824 98.1852 995.277 99.2035 995.277 100.448V210.757C995.277 212.002 994.824 213.02 993.919 213.812C993.127 214.604 992.109 215 990.865 215H970.669C969.425 215 968.35 214.604 967.445 213.812C966.653 213.02 966.257 212.002 966.257 210.757V147.117L947.08 182.586C946.628 183.604 945.949 184.509 945.044 185.301C944.139 186.093 942.894 186.489 941.31 186.489H932.485C930.902 186.489 929.657 186.093 928.752 185.301C927.847 184.509 927.111 183.604 926.546 182.586L907.369 147.117V210.757C907.369 212.002 906.973 213.02 906.181 213.812C905.389 214.604 904.371 215 903.126 215H882.761ZM1012.1 215C1011.2 215 1010.35 214.661 1009.56 213.982C1008.88 213.19 1008.54 212.341 1008.54 211.436C1008.54 210.87 1008.6 210.361 1008.71 209.909L1048.59 100.957C1048.93 99.7126 1049.61 98.6378 1050.63 97.7327C1051.76 96.7144 1053.29 96.2053 1055.21 96.2053H1080.33C1082.25 96.2053 1083.72 96.7144 1084.74 97.7327C1085.87 98.6378 1086.6 99.7126 1086.94 100.957L1126.66 209.909C1126.88 210.361 1126.99 210.87 1126.99 211.436C1126.99 212.341 1126.6 213.19 1125.81 213.982C1125.13 214.661 1124.28 215 1123.26 215H1102.39C1100.69 215 1099.39 214.604 1098.48 213.812C1097.69 212.907 1097.18 212.115 1096.96 211.436L1090.34 194.126H1045.03L1038.58 211.436C1038.35 212.115 1037.84 212.907 1037.05 213.812C1036.26 214.604 1034.9 215 1032.98 215H1012.1ZM1051.98 169.688H1083.55L1067.6 124.886L1051.98 169.688ZM1144.61 215C1143.37 215 1142.35 214.604 1141.56 213.812C1140.77 213.02 1140.37 212.002 1140.37 210.757V100.448C1140.37 99.2035 1140.77 98.1852 1141.56 97.3933C1142.35 96.6013 1143.37 96.2053 1144.61 96.2053H1190.77C1205.37 96.2053 1216.85 99.5994 1225.22 106.388C1233.71 113.063 1237.95 122.566 1237.95 134.898C1237.95 142.931 1235.97 149.719 1232.01 155.263C1228.17 160.807 1223.07 164.993 1216.74 167.822L1240.16 209.569C1240.5 210.248 1240.67 210.87 1240.67 211.436C1240.67 212.341 1240.27 213.19 1239.48 213.982C1238.8 214.661 1237.95 215 1236.93 215H1214.53C1212.38 215 1210.8 214.491 1209.78 213.473C1208.76 212.341 1208.03 211.323 1207.57 210.418L1188.23 173.082H1170.75V210.757C1170.75 212.002 1170.35 213.02 1169.56 213.812C1168.77 214.604 1167.75 215 1166.51 215H1144.61ZM1170.75 149.154H1190.43C1195.75 149.154 1199.71 147.853 1202.31 145.251C1205.03 142.648 1206.39 139.085 1206.39 134.559C1206.39 130.147 1205.09 126.583 1202.48 123.868C1199.99 121.152 1195.98 119.795 1190.43 119.795H1170.75V149.154ZM1261.95 215C1260.71 215 1259.69 214.604 1258.9 213.812C1258.1 213.02 1257.71 212.002 1257.71 210.757V100.448C1257.71 99.2035 1258.1 98.1852 1258.9 97.3933C1259.69 96.6013 1260.71 96.2053 1261.95 96.2053H1283.33C1284.58 96.2053 1285.6 96.6013 1286.39 97.3933C1287.18 98.1852 1287.58 99.2035 1287.58 100.448V138.123L1318.97 99.4297C1319.42 98.7509 1320.16 98.0721 1321.18 97.3933C1322.31 96.6013 1323.78 96.2053 1325.59 96.2053H1350.03C1351.05 96.2053 1351.89 96.6013 1352.57 97.3933C1353.25 98.0721 1353.59 98.8641 1353.59 99.7692C1353.59 100.561 1353.37 101.24 1352.91 101.806L1312.35 153.057L1356.14 209.4C1356.59 209.852 1356.82 210.531 1356.82 211.436C1356.82 212.341 1356.42 213.19 1355.63 213.982C1354.95 214.661 1354.16 215 1353.25 215H1327.97C1325.93 215 1324.35 214.547 1323.21 213.642C1322.2 212.737 1321.52 212.058 1321.18 211.606L1287.58 169.688V210.757C1287.58 212.002 1287.18 213.02 1286.39 213.812C1285.6 214.604 1284.58 215 1283.33 215H1261.95ZM1374.31 215C1373.07 215 1372.05 214.604 1371.26 213.812C1370.47 213.02 1370.07 212.002 1370.07 210.757V100.448C1370.07 99.2035 1370.47 98.1852 1371.26 97.3933C1372.05 96.6013 1373.07 96.2053 1374.31 96.2053H1453.57C1454.81 96.2053 1455.83 96.6013 1456.62 97.3933C1457.41 98.1852 1457.81 99.2035 1457.81 100.448V116.4C1457.81 117.645 1457.41 118.663 1456.62 119.455C1455.83 120.247 1454.81 120.643 1453.57 120.643H1399.43V143.553H1449.83C1451.08 143.553 1452.1 144.006 1452.89 144.911C1453.68 145.703 1454.08 146.721 1454.08 147.966V162.73C1454.08 163.862 1453.68 164.88 1452.89 165.785C1452.1 166.577 1451.08 166.973 1449.83 166.973H1399.43V190.562H1454.92C1456.17 190.562 1457.19 190.958 1457.98 191.75C1458.77 192.542 1459.17 193.56 1459.17 194.805V210.757C1459.17 212.002 1458.77 213.02 1457.98 213.812C1457.19 214.604 1456.17 215 1454.92 215H1374.31ZM1508.84 215C1507.59 215 1506.57 214.604 1505.78 213.812C1504.99 213.02 1504.59 212.002 1504.59 210.757V122.849H1474.39C1473.14 122.849 1472.12 122.453 1471.33 121.661C1470.54 120.756 1470.14 119.738 1470.14 118.607V100.448C1470.14 99.2035 1470.54 98.1852 1471.33 97.3933C1472.12 96.6013 1473.14 96.2053 1474.39 96.2053H1565.69C1566.93 96.2053 1567.95 96.6013 1568.74 97.3933C1569.53 98.1852 1569.93 99.2035 1569.93 100.448V118.607C1569.93 119.738 1569.53 120.756 1568.74 121.661C1567.95 122.453 1566.93 122.849 1565.69 122.849H1535.48V210.757C1535.48 212.002 1535.08 213.02 1534.29 213.812C1533.5 214.604 1532.48 215 1531.24 215H1508.84Z" fill="white" fill-opacity="0.8"/>
</g>
<g filter="url(#filter1_biiiiii_2105_2)">
<path fill-rule="evenodd" clip-rule="evenodd" d="M165.462 251.925C219.842 251.925 263.925 207.842 263.925 153.462C263.925 99.0831 219.842 55 165.462 55C111.083 55 67 99.0831 67 153.462C67 207.842 111.083 251.925 165.462 251.925ZM165.462 210.289C196.847 210.289 222.289 184.847 222.289 153.462C222.289 122.078 196.847 96.6355 165.462 96.6355C134.077 96.6355 108.635 122.078 108.635 153.462C108.635 184.847 134.077 210.289 165.462 210.289Z" fill="#C4C4C4" fill-opacity="0.01"/>
</g>
<g filter="url(#filter2_ddif_2105_2)">
<path d="M241.419 154.039C241.419 167.271 237.883 180.27 231.167 191.729C224.451 203.188 214.792 212.704 203.159 219.32C191.527 225.936 178.331 229.419 164.899 229.419C151.468 229.419 138.272 225.936 126.64 219.32C115.007 212.704 105.348 203.188 98.6318 191.729C91.9158 180.27 88.3801 167.271 88.3801 154.039C88.3801 140.807 91.9158 127.809 98.6318 116.349C105.348 104.89 115.007 95.3745 126.64 88.7585" stroke="white" stroke-width="16.8793" stroke-linecap="round" stroke-linejoin="round"/>
<path d="M241.419 154.039C241.419 167.271 237.883 180.27 231.167 191.729C224.451 203.188 214.792 212.704 203.159 219.32C191.527 225.936 178.331 229.419 164.899 229.419C151.468 229.419 138.272 225.936 126.64 219.32C115.007 212.704 105.348 203.188 98.6318 191.729C91.9158 180.27 88.3801 167.271 88.3801 154.039C88.3801 140.807 91.9158 127.809 98.6318 116.349C105.348 104.89 115.007 95.3745 126.64 88.7585" stroke="url(#paint1_linear_2105_2)" stroke-width="16.8793" stroke-linecap="round" stroke-linejoin="round"/>
</g>
<defs>
<filter id="filter0_ddif_2105_2" x="242.171" y="22.8" width="1399.47" height="265.605" filterUnits="userSpaceOnUse" color-interpolation-filters="sRGB">
<feFlood flood-opacity="0" result="BackgroundImageFix"/>
<feColorMatrix in="SourceAlpha" type="matrix" values="0 0 0 0 0 0 0 0 0 0 0 0 0 0 0 0 0 0 127 0" result="hardAlpha"/>
<feOffset/>
<feGaussianBlur stdDeviation="35.8541"/>
<feColorMatrix type="matrix" values="0 0 0 0 0.192157 0 0 0 0 1 0 0 0 0 0.611765 0 0 0 0.5 0"/>
<feBlend mode="normal" in2="BackgroundImageFix" result="effect1_dropShadow_2105_2"/>
<feColorMatrix in="SourceAlpha" type="matrix" values="0 0 0 0 0 0 0 0 0 0 0 0 0 0 0 0 0 0 127 0" result="hardAlpha"/>
<feOffset/>
<feGaussianBlur stdDeviation="9.26148"/>
<feColorMatrix type="matrix" values="0 0 0 0 0.191667 0 0 0 0 1 0 0 0 0 0.612 0 0 0 0.7 0"/>
<feBlend mode="normal" in2="effect1_dropShadow_2105_2" result="effect2_dropShadow_2105_2"/>
<feBlend mode="normal" in="SourceGraphic" in2="effect2_dropShadow_2105_2" result="shape"/>
<feColorMatrix in="SourceAlpha" type="matrix" values="0 0 0 0 0 0 0 0 0 0 0 0 0 0 0 0 0 0 127 0" result="hardAlpha"/>
<feOffset/>
<feGaussianBlur stdDeviation="3.58541"/>
<feComposite in2="hardAlpha" operator="arithmetic" k2="-1" k3="1"/>
<feColorMatrix type="matrix" values="0 0 0 0 0.192157 0 0 0 0 1 0 0 0 0 0.611765 0 0 0 0.5 0"/>
<feBlend mode="normal" in2="shape" result="effect3_innerShadow_2105_2"/>
<feGaussianBlur stdDeviation="0.661534" result="effect4_foregroundBlur_2105_2"/>
</filter>
<filter id="filter1_biiiiii_2105_2" x="31.3856" y="19.3856" width="268.154" height="268.154" filterUnits="userSpaceOnUse" color-interpolation-filters="sRGB">
<feFlood flood-opacity="0" result="BackgroundImageFix"/>
<feGaussianBlur in="BackgroundImageFix" stdDeviation="17.8072"/>
<feComposite in2="SourceAlpha" operator="in" result="effect1_backgroundBlur_2105_2"/>
<feBlend mode="normal" in="SourceGraphic" in2="effect1_backgroundBlur_2105_2" result="shape"/>
<feColorMatrix in="SourceAlpha" type="matrix" values="0 0 0 0 0 0 0 0 0 0 0 0 0 0 0 0 0 0 127 0" result="hardAlpha"/>
<feOffset dy="0.186772"/>
<feGaussianBlur stdDeviation="3.73545"/>
<feComposite in2="hardAlpha" operator="arithmetic" k2="-1" k3="1"/>
<feColorMatrix type="matrix" values="0 0 0 0 0.888917 0 0 0 0 0.870833 0 0 0 0 1 0 0 0 0.2 0"/>
<feBlend mode="normal" in2="shape" result="effect2_innerShadow_2105_2"/>
<feColorMatrix in="SourceAlpha" type="matrix" values="0 0 0 0 0 0 0 0 0 0 0 0 0 0 0 0 0 0 127 0" result="hardAlpha"/>
<feOffset dy="0.747089"/>
<feGaussianBlur stdDeviation="1.68095"/>
<feComposite in2="hardAlpha" operator="arithmetic" k2="-1" k3="1"/>
<feColorMatrix type="matrix" values="0 0 0 0 0.60543 0 0 0 0 0.574062 0 0 0 0 0.825 0 0 0 0.3 0"/>
<feBlend mode="normal" in2="effect2_innerShadow_2105_2" result="effect3_innerShadow_2105_2"/>
<feColorMatrix in="SourceAlpha" type="matrix" values="0 0 0 0 0 0 0 0 0 0 0 0 0 0 0 0 0 0 127 0" result="hardAlpha"/>
<feMorphology radius="8.96507" operator="dilate" in="SourceAlpha" result="effect4_innerShadow_2105_2"/>
<feOffset dy="18.3037"/>
<feGaussianBlur stdDeviation="9.33861"/>
<feComposite in2="hardAlpha" operator="arithmetic" k2="-1" k3="1"/>
<feColorMatrix type="matrix" values="0 0 0 0 0.792093 0 0 0 0 0.675 0 0 0 0 1 0 0 0 0.3 0"/>
<feBlend mode="normal" in2="effect3_innerShadow_2105_2" result="effect4_innerShadow_2105_2"/>
<feColorMatrix in="SourceAlpha" type="matrix" values="0 0 0 0 0 0 0 0 0 0 0 0 0 0 0 0 0 0 127 0" result="hardAlpha"/>
<feMorphology radius="11.9534" operator="dilate" in="SourceAlpha" result="effect5_innerShadow_2105_2"/>
<feOffset dy="-15.3153"/>
<feGaussianBlur stdDeviation="6.35026"/>
<feComposite in2="hardAlpha" operator="arithmetic" k2="-1" k3="1"/>
<feColorMatrix type="matrix" values="0 0 0 0 0.374841 0 0 0 0 0.266806 0 0 0 0 0.566667 0 0 0 0.3 0"/>
<feBlend mode="normal" in2="effect4_innerShadow_2105_2" result="effect5_innerShadow_2105_2"/>
<feColorMatrix in="SourceAlpha" type="matrix" values="0 0 0 0 0 0 0 0 0 0 0 0 0 0 0 0 0 0 127 0" result="hardAlpha"/>
<feMorphology radius="0.747089" operator="dilate" in="SourceAlpha" result="effect6_innerShadow_2105_2"/>
<feOffset dy="1.30741"/>
<feGaussianBlur stdDeviation="1.02725"/>
<feComposite in2="hardAlpha" operator="arithmetic" k2="-1" k3="1"/>
<feColorMatrix type="matrix" values="0 0 0 0 1 0 0 0 0 1 0 0 0 0 1 0 0 0 1 0"/>
<feBlend mode="normal" in2="effect5_innerShadow_2105_2" result="effect6_innerShadow_2105_2"/>
<feColorMatrix in="SourceAlpha" type="matrix" values="0 0 0 0 0 0 0 0 0 0 0 0 0 0 0 0 0 0 127 0" result="hardAlpha"/>
<feMorphology radius="6.7238" operator="dilate" in="SourceAlpha" result="effect7_innerShadow_2105_2"/>
<feOffset dy="7.28412"/>
<feGaussianBlur stdDeviation="5.22962"/>
<feComposite in2="hardAlpha" operator="arithmetic" k2="-1" k3="1"/>
<feColorMatrix type="matrix" values="0 0 0 0 1 0 0 0 0 1 0 0 0 0 1 0 0 0 0.5 0"/>
<feBlend mode="normal" in2="effect6_innerShadow_2105_2" result="effect7_innerShadow_2105_2"/>
</filter>
<filter id="filter2_ddif_2105_2" x="0.344978" y="0.721931" width="329.109" height="316.732" filterUnits="userSpaceOnUse" color-interpolation-filters="sRGB">
<feFlood flood-opacity="0" result="BackgroundImageFix"/>
<feColorMatrix in="SourceAlpha" type="matrix" values="0 0 0 0 0 0 0 0 0 0 0 0 0 0 0 0 0 0 127 0" result="hardAlpha"/>
<feOffset/>
<feGaussianBlur stdDeviation="39.7977"/>
<feColorMatrix type="matrix" values="0 0 0 0 0.192157 0 0 0 0 1 0 0 0 0 0.611765 0 0 0 0.5 0"/>
<feBlend mode="normal" in2="BackgroundImageFix" result="effect1_dropShadow_2105_2"/>
<feColorMatrix in="SourceAlpha" type="matrix" values="0 0 0 0 0 0 0 0 0 0 0 0 0 0 0 0 0 0 127 0" result="hardAlpha"/>
<feOffset/>
<feGaussianBlur stdDeviation="10.2801"/>
<feColorMatrix type="matrix" values="0 0 0 0 0.191667 0 0 0 0 1 0 0 0 0 0.612 0 0 0 0.7 0"/>
<feBlend mode="normal" in2="effect1_dropShadow_2105_2" result="effect2_dropShadow_2105_2"/>
<feBlend mode="normal" in="SourceGraphic" in2="effect2_dropShadow_2105_2" result="shape"/>
<feColorMatrix in="SourceAlpha" type="matrix" values="0 0 0 0 0 0 0 0 0 0 0 0 0 0 0 0 0 0 127 0" result="hardAlpha"/>
<feOffset/>
<feGaussianBlur stdDeviation="3.97977"/>
<feComposite in2="hardAlpha" operator="arithmetic" k2="-1" k3="1"/>
<feColorMatrix type="matrix" values="0 0 0 0 0.192157 0 0 0 0 1 0 0 0 0 0.611765 0 0 0 0.5 0"/>
<feBlend mode="normal" in2="shape" result="effect3_innerShadow_2105_2"/>
<feGaussianBlur stdDeviation="0.734296" result="effect4_foregroundBlur_2105_2"/>
</filter>
<linearGradient id="paint0_linear_2105_2" x1="956.5" y1="77" x2="956.5" y2="229" gradientUnits="userSpaceOnUse">
<stop stop-color="white"/>
<stop offset="1" stop-color="white" stop-opacity="0"/>
</linearGradient>
<linearGradient id="paint1_linear_2105_2" x1="164.899" y1="88.7585" x2="164.899" y2="229.419" gradientUnits="userSpaceOnUse">
<stop stop-color="white"/>
<stop offset="1" stop-color="white" stop-opacity="0"/>
</linearGradient>
</defs>
</svg>
